<svg width="52" height="52" viewBox="0 0 52 52" fill="none" xmlns="http://www.w3.org/2000/svg">
<g clip-path="url(#clip0)">
<path d="M30.875 45.5H21.125C20.228 45.5 19.5 44.772 19.5 43.875C19.5 42.978 20.228 42.25 21.125 42.25H30.875C31.772 42.25 32.5 42.978 32.5 43.875C32.5 44.772 31.772 45.5 30.875 45.5Z" fill="white"/>
<path d="M26 7.49017C25.103 7.49017 24.375 6.76217 24.375 5.86517V1.625C24.375 0.728 25.103 0 26 0C26.897 0 27.625 0.728 27.625 1.625V5.86517C27.625 6.76217 26.897 7.49017 26 7.49017Z" fill="white"/>
<path d="M40.2377 13.3878C39.8217 13.3878 39.4057 13.2296 39.0894 12.9111C38.4546 12.2763 38.4546 11.2471 39.0894 10.6123L42.0881 7.61364C42.7229 6.9788 43.7521 6.9788 44.3869 7.61364C45.0217 8.24847 45.0217 9.27764 44.3869 9.91247L41.3882 12.9111C41.0697 13.2275 40.6537 13.3878 40.2377 13.3878Z" fill="white"/>
<path d="M50.3749 27.625H46.1348C45.2378 27.625 44.5098 26.897 44.5098 26C44.5098 25.103 45.2378 24.375 46.1348 24.375H50.3749C51.2719 24.375 51.9999 25.103 51.9999 26C51.9999 26.897 51.2719 27.625 50.3749 27.625Z" fill="white"/>
<path d="M43.2364 44.8608C42.8204 44.8608 42.4044 44.7027 42.0881 44.3842L39.0894 41.3855C38.4546 40.7507 38.4546 39.7215 39.0894 39.0867C39.7242 38.4518 40.7534 38.4518 41.3882 39.0867L44.3869 42.0853C45.0217 42.7202 45.0217 43.7493 44.3869 44.3842C44.0684 44.7027 43.6524 44.8608 43.2364 44.8608Z" fill="white"/>
<path d="M8.76411 44.8608C8.34811 44.8608 7.93211 44.7027 7.61577 44.3842C6.98094 43.7493 6.98094 42.7202 7.61577 42.0853L10.6144 39.0867C11.2493 38.4518 12.2784 38.4518 12.9133 39.0867C13.5481 39.7215 13.5481 40.7507 12.9133 41.3855L9.91461 44.3842C9.59611 44.7027 9.18011 44.8608 8.76411 44.8608Z" fill="white"/>
<path d="M5.86517 27.625H1.625C0.728 27.625 0 26.897 0 26C0 25.103 0.728 24.375 1.625 24.375H5.86517C6.76217 24.375 7.49017 25.103 7.49017 26C7.49017 26.897 6.76217 27.625 5.86517 27.625Z" fill="white"/>
<path d="M11.7628 13.3878C11.3468 13.3878 10.9308 13.2296 10.6144 12.9111L7.61577 9.91247C6.98094 9.27764 6.98094 8.24847 7.61577 7.61364C8.25061 6.9788 9.27977 6.9788 9.91461 7.61364L12.9133 10.6123C13.5481 11.2471 13.5481 12.2763 12.9133 12.9111C12.5926 13.2275 12.1788 13.3878 11.7628 13.3878Z" fill="white"/>
<path d="M34.1253 27.0833C33.2283 27.0833 32.5003 26.3553 32.5003 25.4583C32.5003 22.1715 29.8288 19.5 26.542 19.5C25.645 19.5 24.917 18.772 24.917 17.875C24.917 16.978 25.645 16.25 26.542 16.25C31.6185 16.25 35.7503 20.3818 35.7503 25.4583C35.7503 26.3553 35.0223 27.0833 34.1253 27.0833Z" fill="white"/>
<path d="M28.7081 52H23.2914C21.4649 52 19.4997 50.6133 19.4997 47.5713V43.7493C19.4997 41.4505 18.5204 39.3402 16.8802 38.1052C12.1461 34.541 9.95558 28.678 11.1624 22.8042C12.3432 17.0495 16.9994 12.376 22.7476 11.1735C27.3171 10.2137 31.9949 11.3252 35.5612 14.2242C39.1232 17.1188 41.1664 21.411 41.1664 26C41.1664 30.6757 39.0539 35.0155 35.3706 37.9123C33.5463 39.3467 32.4998 41.3443 32.4998 43.3918V48.2083C32.4998 50.2992 30.7989 52 28.7081 52ZM25.9694 14.0877C25.1201 14.0877 24.2642 14.1765 23.4084 14.3542C18.9104 15.2945 15.2682 18.9518 14.3431 23.4563C13.3919 28.0865 15.1122 32.7058 18.8324 35.5073C21.2829 37.3533 22.7476 40.4343 22.7476 43.7493V47.5713C22.7476 47.7685 22.7736 48.75 23.2892 48.75H28.7059C29.0049 48.75 29.2476 48.5073 29.2476 48.2083V43.3918C29.2476 40.339 30.7469 37.4118 33.3599 35.3557C36.2568 33.0807 37.9164 29.6703 37.9164 26C37.9164 22.3947 36.3087 19.0212 33.5094 16.7462C31.3687 15.0085 28.7146 14.0877 25.9694 14.0877Z" fill="white"/>
</g>
<defs>
<clipPath id="clip0">
<rect width="52" height="52" fill="white"/>
</clipPath>
</defs>
</svg>
