<svg width="47" height="47" viewBox="0 0 47 47" fill="none" xmlns="http://www.w3.org/2000/svg">
<path d="M44.833 45.1641H42.8196V15.9301C42.8196 14.5693 41.7126 13.4624 40.352 13.4624H35.8517C34.491 13.4624 33.384 14.5694 33.384 15.9301V45.1641H28.2717V29.1753C28.2717 27.8146 27.1647 26.7077 25.804 26.7077H21.3037C19.943 26.7077 18.8361 27.8147 18.8361 29.1753V45.1641H13.7237V36.8836C13.7237 35.5229 12.6166 34.4159 11.256 34.4159H6.75568C5.39497 34.4159 4.28799 35.523 4.28799 36.8836V45.1641H2.16602C1.65902 45.1641 1.24805 45.575 1.24805 46.082C1.24805 46.589 1.65902 47 2.16602 47H44.833C45.34 47 45.751 46.589 45.751 46.082C45.751 45.575 45.34 45.1641 44.833 45.1641ZM11.8876 45.1641H6.12384V36.8836C6.12384 36.5352 6.40722 36.2519 6.75559 36.2519H11.2558C11.6042 36.2519 11.8876 36.5352 11.8876 36.8836V45.1641ZM26.4356 45.1641H20.6719V29.1753C20.6719 28.827 20.9553 28.5436 21.3036 28.5436H25.8039C26.1522 28.5436 26.4356 28.827 26.4356 29.1753V45.1641ZM40.9837 45.1641H35.22V15.9301C35.22 15.5817 35.5033 15.2983 35.8517 15.2983H40.352C40.7003 15.2983 40.9837 15.5817 40.9837 15.9301V45.1641Z" fill="#4B89C5"/>
<path d="M42.8184 0.965336C42.8312 0.714822 42.7431 0.460086 42.5518 0.268781C42.3605 0.0774765 42.1058 -0.0107402 41.8552 0.00220313C41.8405 0.00156055 41.8259 0 41.8108 0H36.2571C35.7501 0 35.3391 0.410975 35.3391 0.917969C35.3391 1.42496 35.7501 1.83594 36.2571 1.83594H39.6864L30.6116 10.9108L27.1894 7.48861C27.0173 7.31649 26.7837 7.21973 26.5403 7.21973C26.2969 7.21973 26.0633 7.31649 25.8912 7.48861L9.38897 23.9909C9.0305 24.3494 9.0305 24.9307 9.38897 25.2892C9.56825 25.4683 9.80316 25.5579 10.0381 25.5579C10.273 25.5579 10.508 25.4683 10.6872 25.289L26.5403 9.4358L29.9625 12.858C30.321 13.2165 30.9022 13.2165 31.2608 12.858L40.9846 3.13422V6.23787C40.9846 6.74487 41.3956 7.15584 41.9026 7.15584C42.4096 7.15584 42.8206 6.74487 42.8206 6.23787V1.00977C42.8206 0.994803 42.819 0.980207 42.8184 0.965336Z" fill="#4B89C5"/>
<path d="M6.94336 28.7609C7.45034 28.7609 7.86133 28.3499 7.86133 27.8429C7.86133 27.3359 7.45034 26.9249 6.94336 26.9249C6.43638 26.9249 6.02539 27.3359 6.02539 27.8429C6.02539 28.3499 6.43638 28.7609 6.94336 28.7609Z" fill="#4B89C5"/>
</svg>
