<svg width="84" height="80" viewBox="0 0 84 80" fill="none" xmlns="http://www.w3.org/2000/svg">
<path d="M67.7383 37.5759C67.3114 37.5759 66.8879 37.5616 66.4673 37.5367V53.1061H4.92189V29.9828H51.5028C48.4164 26.3017 46.555 21.5606 46.555 16.3923C46.555 15.9574 46.5697 15.5257 46.5956 15.0972H7.38283C3.31194 15.0972 0 18.4091 0 22.48V60.6089C0 64.6797 3.31194 67.9917 7.38283 67.9917H25.3388V74.9475H21.1559C19.7968 74.9475 18.695 76.0493 18.695 77.4084C18.695 78.7675 19.7968 79.8693 21.1559 79.8693H50.2331C51.5922 79.8693 52.694 78.7675 52.694 77.4084C52.694 76.0493 51.5922 74.9475 50.2331 74.9475H46.0501V67.9917H64.0062C68.077 67.9917 71.389 64.6797 71.389 60.6089V37.2601C70.2028 37.467 68.983 37.5759 67.7383 37.5759Z" fill="white"/>
<path d="M67.7381 0.130615C58.7715 0.130615 51.4766 7.4255 51.4766 16.3922C51.4766 25.3589 58.7715 32.6539 67.7381 32.6539C76.7048 32.6539 83.9999 25.359 83.9999 16.3922C83.9999 7.4255 76.705 0.130615 67.7381 0.130615ZM65.2772 9.39573C65.2772 8.03664 66.379 6.93479 67.7381 6.93479C69.0972 6.93479 70.1991 8.03664 70.1991 9.39573V15.8329C70.1991 17.192 69.0972 18.2938 67.7381 18.2938C66.379 18.2938 65.2772 17.192 65.2772 15.8329V9.39573ZM67.7383 24.7012C66.3792 24.7012 65.2774 23.5993 65.2774 22.2402C65.2774 20.8811 66.3792 19.7793 67.7383 19.7793C69.0974 19.7793 70.1992 20.8811 70.1992 22.2402C70.1992 23.5993 69.0974 24.7012 67.7383 24.7012Z" fill="white"/>
</svg>
