<svg width="45" height="45" viewBox="0 0 45 45" fill="none" xmlns="http://www.w3.org/2000/svg">
<path d="M42.2835 2.45541H2.71662C1.21869 2.45541 0 3.67411 0 5.17203V32.4902C0 33.9881 1.21869 35.2068 2.71662 35.2068H16.2747V37.1834C16.2747 38.9955 14.8004 40.4698 12.9883 40.4698H10.0003C9.42743 40.4698 8.96293 40.9342 8.96293 41.5071C8.96293 42.0801 9.42743 42.5445 10.0003 42.5445H34.9996C35.5725 42.5445 36.037 42.0801 36.037 41.5071C36.037 40.9342 35.5725 40.4698 34.9996 40.4698H32.0115C30.1995 40.4698 28.7252 38.9955 28.7252 37.1834V35.2069H42.2832C43.7811 35.2069 44.9999 33.9882 44.9999 32.4902V5.17203C45.0001 3.67411 43.7814 2.45541 42.2835 2.45541ZM17.2196 40.4699C17.9267 39.5615 18.3496 38.4214 18.3496 37.1836V35.207H26.6506V37.1836C26.6506 38.4214 27.0734 39.5616 27.7806 40.4699H17.2196ZM42.9253 32.4902C42.9253 32.8442 42.6374 33.1322 42.2834 33.1322H2.71662C2.36268 33.1322 2.07466 32.8443 2.07466 32.4902V27.0381H42.9253V32.4902ZM42.9253 24.9633H2.07475V5.17203C2.07475 4.81809 2.36268 4.53008 2.7167 4.53008H42.2834C42.6373 4.53008 42.9254 4.81801 42.9254 5.17203V24.9633H42.9253Z" fill="#4B89C5"/>
<path d="M22.5004 31.205C23.1187 31.205 23.62 30.7038 23.62 30.0855C23.62 29.4671 23.1187 28.9659 22.5004 28.9659C21.8821 28.9659 21.3809 29.4671 21.3809 30.0855C21.3809 30.7038 21.8821 31.205 22.5004 31.205Z" fill="#4B89C5"/>
<path d="M24.2791 9.60242C23.8739 9.19733 23.2172 9.19733 22.8119 9.60242L15.4806 16.9337C15.0755 17.3388 15.0755 17.9957 15.4806 18.4009C15.6833 18.6035 15.9486 18.7047 16.2142 18.7047C16.4798 18.7047 16.7451 18.6035 16.9477 18.4009L24.2791 11.0696C24.6841 10.6645 24.6841 10.0076 24.2791 9.60242Z" fill="#4B89C5"/>
<path d="M28.6241 13.851C28.2191 13.4459 27.5625 13.4459 27.157 13.8509L24.2364 16.7713C23.8313 17.1765 23.8313 17.8334 24.2364 18.2385C24.439 18.4411 24.7044 18.5423 24.97 18.5423C25.2354 18.5423 25.5009 18.4411 25.7035 18.2385L28.6241 15.3181C29.0292 14.913 29.0292 14.2561 28.6241 13.851Z" fill="#4B89C5"/>
</svg>
