<?xml version="1.0" encoding="utf-8"?>
<!-- Generator: Adobe Illustrator 24.0.1, SVG Export Plug-In . SVG Version: 6.00 Build 0)  -->
<svg version="1.1" id="Слой_1" xmlns="http://www.w3.org/2000/svg" xmlns:xlink="http://www.w3.org/1999/xlink" x="0px" y="0px"
	 viewBox="0 0 1000 600" style="enable-background:new 0 0 1000 600;" xml:space="preserve">
<style type="text/css">
	.st0{fill:#4B89C5;}
	.st1{fill:#FFFFFF;}
</style>
<g>
	<g>
		<rect x="571.12" y="240.18" class="st0" width="359.17" height="171.57"/>
	</g>
	<g>
		<path class="st0" d="M303.35,274.45c16.39,0,28.42,3.17,36.1,9.5c7.67,6.34,11.51,16.13,11.51,29.39
			c0,13.12-3.88,22.76-11.62,28.95c-7.75,6.18-19.67,9.28-35.76,9.28h-19.22v32.19H265.8V274.45H303.35z M305.59,335.03
			c9.83,0,16.73-1.86,20.68-5.59c3.95-3.72,5.92-9.61,5.92-17.66c0-7.45-2.31-12.74-6.93-15.87c-4.62-3.13-12.07-4.7-22.35-4.7
			h-18.55v43.81H305.59z"/>
	</g>
	<g>
		<path class="st0" d="M387.62,301.95c0,4.62,1.71,7.97,5.14,10.06c3.43,2.54,10.73,5.14,21.91,7.82
			c11.77,2.83,20.38,6.71,25.82,11.62c5.44,4.92,8.16,12,8.16,21.23c0,9.69-3.61,17.51-10.84,23.47
			c-7.23,5.96-16.65,8.94-28.28,8.94c-16.84,0-32.04-5.96-45.6-17.88l11.62-13.86c11.32,9.69,22.8,14.53,34.42,14.53
			c5.81,0,10.51-1.3,14.08-3.91c3.58-2.61,5.36-6,5.36-10.17c0-4.17-1.6-7.45-4.81-9.84c-3.21-2.38-8.91-4.54-17.1-6.48
			c-14.16-3.28-23.99-7.15-29.51-11.62c-6.41-4.92-9.61-12.44-9.61-22.58c0-9.84,3.58-17.55,10.73-23.13
			c7.15-5.59,16.32-8.38,27.49-8.38c15.05,0,27.94,4.4,38.67,13.19l-9.83,13.86c-3.28-2.98-7.68-5.4-13.19-7.26
			c-5.51-1.86-10.95-2.79-16.32-2.79c-5.51,0-9.95,1.16-13.3,3.46C389.3,294.53,387.62,297.78,387.62,301.95z"/>
	</g>
	<g>
		<path class="st0" d="M514.36,383.76h-18.78v-43.14l-40.68-66.16h20.34l29.73,49.62l29.95-49.62h20.12l-40.68,66.16V383.76z"/>
	</g>
	<g>
		<path class="st1" d="M661.89,383.76h-20.56l-44.03-109.31h20.79l33.53,81.59l33.75-81.59h20.56L661.89,383.76z"/>
	</g>
	<g>
		<path class="st1" d="M798.46,274.45v17.21h-58.34v29.06h52.31v16.32h-52.31v29.28h60.13v17.44h-78.68V274.45H798.46z"/>
	</g>
	<g>
		<path class="st1" d="M866.86,383.76h-18.78v-43.14l-40.68-66.16h20.34l29.73,49.62l29.95-49.62h20.12l-40.68,66.16V383.76z"/>
	</g>
</g>
<g>
	<path class="st0" d="M161.19,351.39V336.2c33.06,0,59.95-26.9,59.95-59.95s-26.89-59.95-59.95-59.95
		c-33.06,0-59.95,26.9-59.95,59.95c0,13.05,4.12,25.45,11.91,35.87l-12.16,9.1c-9.77-13.06-14.93-28.61-14.93-44.97
		c0-41.43,33.71-75.14,75.14-75.14c41.43,0,75.14,33.71,75.14,75.14S202.62,351.39,161.19,351.39z"/>
</g>
<g>
	<path class="st0" d="M161.68,451.68c-31.87,0-57.8-25.9-57.8-57.74s25.93-57.74,57.8-57.74v15.19c-23.5,0-42.61,19.09-42.61,42.55
		s19.12,42.55,42.61,42.55c23.5,0,42.61-19.09,42.61-42.55c0-6.32-1.35-12.4-4.02-18.07l13.74-6.46c3.62,7.71,5.46,15.96,5.46,24.53
		C219.48,425.78,193.55,451.68,161.68,451.68z"/>
</g>
<g>
	<path class="st0" d="M164.2,188.79L164.2,188.79c-2.84,0-5.14-2.3-5.14-5.14v-25.71c0-2.84,2.3-5.14,5.14-5.14h0
		c2.84,0,5.14,2.3,5.14,5.14v25.71C169.35,186.49,167.04,188.79,164.2,188.79z"/>
</g>
<g>
	<path class="st0" d="M125.68,197.32L125.68,197.32c-2.56,1.22-5.63,0.14-6.86-2.43l-11.08-23.2c-1.22-2.56-0.14-5.63,2.43-6.86h0
		c2.56-1.22,5.63-0.14,6.86,2.43l11.08,23.2C129.32,193.03,128.24,196.1,125.68,197.32z"/>
</g>
<g>
	<path class="st0" d="M199.25,199.63L199.25,199.63c2.56,1.22,5.63,0.14,6.86-2.43l11.08-23.2c1.22-2.56,0.14-5.63-2.43-6.86h0
		c-2.56-1.22-5.63-0.14-6.86,2.43l-11.08,23.2C195.6,195.34,196.69,198.41,199.25,199.63z"/>
</g>
<g>
	<path class="st0" d="M94.71,216.53L94.71,216.53c-1.88,2.13-5.12,2.34-7.26,0.47l-19.31-16.98c-2.13-1.88-2.34-5.12-0.47-7.26l0,0
		c1.88-2.13,5.12-2.34,7.26-0.47l19.31,16.98C96.38,211.15,96.59,214.4,94.71,216.53z"/>
</g>
<g>
	<path class="st0" d="M228.69,220.53L228.69,220.53c1.88,2.13,5.12,2.34,7.26,0.47l19.31-16.98c2.13-1.88,2.34-5.12,0.47-7.26l0,0
		c-1.88-2.13-5.12-2.34-7.26-0.47l-19.31,16.98C227.02,215.15,226.81,218.39,228.69,220.53z"/>
</g>
</svg>
