<svg width="80" height="80" viewBox="0 0 80 80" fill="none" xmlns="http://www.w3.org/2000/svg">
<path d="M68.4515 42.7063H62.2646C62.8953 44.4329 63.2398 46.2961 63.2398 48.2382V71.621C63.2398 72.4307 63.0989 73.2079 62.8425 73.9307H73.0708C76.8915 73.9307 79.9998 70.8223 79.9998 67.0016V54.2546C80 47.8869 74.8193 42.7063 68.4515 42.7063Z" fill="white"/>
<path d="M16.7602 48.2384C16.7602 46.2962 17.1047 44.4331 17.7353 42.7065H11.5485C5.18064 42.7065 0 47.8872 0 54.255V67.0021C0 70.8227 3.10829 73.9311 6.92908 73.9311H17.1575C16.9011 73.208 16.7602 72.431 16.7602 71.6213V48.2384Z" fill="white"/>
<path d="M47.0724 36.6899H32.9283C26.5605 36.6899 21.3799 41.8706 21.3799 48.2384V71.6213C21.3799 72.8967 22.4139 73.931 23.6896 73.931H56.3112C57.5868 73.931 58.6209 72.8969 58.6209 71.6213V48.2384C58.6209 41.8706 53.4402 36.6899 47.0724 36.6899Z" fill="white"/>
<path d="M39.9998 6.06873C32.3417 6.06873 26.1113 12.299 26.1113 19.9573C26.1113 25.1519 28.9784 29.6886 33.2124 32.0705C35.2207 33.2002 37.536 33.8458 39.9998 33.8458C42.4635 33.8458 44.7789 33.2002 46.7871 32.0705C51.0214 29.6886 53.8882 25.1517 53.8882 19.9573C53.8882 12.2992 47.6579 6.06873 39.9998 6.06873Z" fill="white"/>
<path d="M15.6123 19.0139C9.88497 19.0139 5.22559 23.6733 5.22559 29.4007C5.22559 35.128 9.88497 39.7874 15.6123 39.7874C17.0651 39.7874 18.4486 39.4865 19.7053 38.9455C21.8781 38.01 23.6697 36.3541 24.7783 34.2799C25.5564 32.8241 25.9991 31.1633 25.9991 29.4007C25.9991 23.6735 21.3397 19.0139 15.6123 19.0139Z" fill="white"/>
<path d="M64.3877 19.0139C58.6604 19.0139 54.001 23.6733 54.001 29.4007C54.001 31.1635 54.4436 32.8243 55.2218 34.2799C56.3304 36.3543 58.1219 38.0102 60.2947 38.9455C61.5515 39.4865 62.9349 39.7874 64.3877 39.7874C70.1151 39.7874 74.7745 35.128 74.7745 29.4007C74.7745 23.6733 70.1151 19.0139 64.3877 19.0139Z" fill="white"/>
</svg>
