<svg width="70" height="70" viewBox="0 0 70 70" fill="none" xmlns="http://www.w3.org/2000/svg">
<path d="M55.5078 49.4922C52.6949 49.4922 50.1459 50.6329 48.2922 52.4728L31.5115 41.1475C32.4066 39.2767 32.9492 37.2083 32.9492 35C32.9492 32.7917 32.4066 30.7233 31.5115 28.8525L48.2922 17.5272C50.1459 19.3671 52.6949 20.5078 55.5078 20.5078C61.1635 20.5078 65.7617 15.9074 65.7617 10.2539C65.7617 4.60037 61.1635 0 55.5078 0C49.8521 0 45.2539 4.60037 45.2539 10.2539C45.2539 11.62 45.5338 12.9194 46.0208 14.1119L29.2279 25.4457C26.5982 22.5212 22.8267 20.6445 18.5938 20.6445C10.679 20.6445 4.23828 27.0853 4.23828 35C4.23828 42.9147 10.679 49.3555 18.5938 49.3555C22.8267 49.3555 26.5982 47.4788 29.2279 44.5543L46.0208 55.8881C45.5338 57.0806 45.2539 58.38 45.2539 59.7461C45.2539 65.3996 49.8521 70 55.5078 70C61.1635 70 65.7617 65.3996 65.7617 59.7461C65.7617 54.0926 61.1635 49.4922 55.5078 49.4922Z" fill="white"/>
</svg>
