<svg width="40" height="33" viewBox="0 0 40 33" fill="none" xmlns="http://www.w3.org/2000/svg">
<path d="M38.3333 18.1498L5.08417 18.1498L17.8158 30.155C18.4825 30.7837 18.5083 31.8281 17.8733 32.4881C17.2392 33.1473 16.1842 33.1737 15.5167 32.545L0.976666 18.8337C0.347499 18.21 -1.36539e-06 17.3817 -1.44249e-06 16.4998C-1.51952e-06 15.6187 0.347498 14.7896 1.00583 14.1387L15.5175 0.455393C15.84 0.150973 16.2533 2.39379e-06 16.6667 2.35765e-06C17.1067 2.31918e-06 17.5467 0.171599 17.8742 0.51232C18.5092 1.17231 18.4833 2.21593 17.8167 2.84457L5.03167 14.8498L38.3333 14.8498C39.2533 14.8498 40 15.589 40 16.4998C40 17.4106 39.2533 18.1498 38.3333 18.1498Z" fill="#F08E86"/>
</svg>
